<?xml version="1.0" standalone="no"?>
<!DOCTYPE svg PUBLIC "-//W3C//DTD SVG 20010904//EN"
 "http://www.w3.org/TR/2001/REC-SVG-20010904/DTD/svg10.dtd">
<svg version="1.0" xmlns="http://www.w3.org/2000/svg"
 width="130.000000pt" height="121.000000pt" viewBox="0 0 130.000000 121.000000"
 preserveAspectRatio="xMidYMid meet">

<g transform="translate(0.000000,121.000000) scale(0.100000,-0.100000)"
fill="#000000" stroke="none">
<path d="M500 1091 c0 -5 9 -13 20 -16 23 -7 27 -25 5 -25 -39 0 -149 -63
-205 -116 -190 -181 -196 -480 -12 -663 32 -32 81 -70 109 -85 58 -29 170 -62
179 -53 12 11 -8 27 -34 27 -40 1 -133 42 -191 84 -64 48 -114 116 -147 202
-23 62 -25 80 -22 169 4 85 9 110 34 165 44 94 120 173 209 215 40 19 80 35
90 35 17 0 17 -1 0 -20 -10 -11 -15 -23 -11 -27 7 -7 65 53 66 67 0 5 -75 50
-84 50 -4 0 -6 -4 -6 -9z"/>
<path d="M760 1042 c0 -5 34 -26 75 -46 225 -111 316 -376 204 -597 -46 -93
-135 -179 -215 -209 -27 -10 -27 -10 -10 14 19 29 20 36 6 36 -9 0 -55 -80
-48 -84 12 -7 80 -36 83 -36 15 0 2 22 -17 29 -19 7 -16 11 34 39 58 33 139
113 175 172 108 177 75 421 -76 570 -65 64 -211 142 -211 112z"/>
<path d="M387 778 c-42 -32 -40 -100 3 -131 20 -14 20 -14 -10 -27 -42 -17
-88 -72 -96 -115 -11 -62 -6 -65 105 -65 90 0 99 -2 104 -20 5 -19 14 -20 151
-20 138 0 146 1 146 20 0 18 8 20 103 22 l102 3 -1 47 c0 58 -38 111 -90 128
-33 11 -35 14 -18 23 74 41 46 147 -40 147 -80 0 -104 -109 -32 -147 16 -9 15
-11 -15 -22 -18 -6 -43 -21 -55 -32 -15 -14 -29 -18 -48 -13 -32 8 -32 11 -1
36 34 27 34 80 0 113 -13 14 -33 25 -44 25 -85 0 -118 -86 -56 -145 l25 -22
-32 -7 c-24 -5 -37 -1 -52 13 -12 11 -34 25 -50 31 l-29 11 22 15 c12 9 26 27
31 40 11 29 -5 81 -30 94 -26 14 -73 12 -93 -2z m85 -25 c20 -18 24 -63 6 -81
-7 -7 -26 -12 -43 -12 -37 0 -55 16 -55 49 0 52 54 78 92 44z m418 -3 c24 -24
25 -47 3 -72 -31 -35 -103 -12 -103 34 0 24 35 58 60 58 11 0 29 -9 40 -20z
m-210 -40 c11 -11 20 -29 20 -40 0 -25 -34 -60 -59 -60 -19 0 -61 43 -61 62 0
15 48 58 65 58 8 0 24 -9 35 -20z m-197 -113 c18 -8 38 -21 45 -30 12 -14 11
-20 -7 -43 -12 -15 -21 -33 -21 -40 0 -11 -22 -14 -96 -14 l-97 0 6 36 c7 43
30 72 72 90 39 17 58 17 98 1z m453 -29 c19 -18 36 -48 40 -65 l7 -33 -94 0
-94 0 -25 45 c-26 48 -25 53 25 80 45 24 101 14 141 -27z m-236 -18 c29 -15
60 -56 66 -88 l7 -32 -133 0 c-116 0 -131 2 -126 16 3 9 6 22 6 29 0 24 51 75
83 84 32 9 68 5 97 -9z"/>
</g>
</svg>
